<mxfile host="app.diagrams.net" modified="2022-11-03T03:30:38.203Z" agent="5.0 (Windows NT 10.0; Win64; x64) AppleWebKit/537.36 (KHTML, like Gecko) Chrome/105.0.0.0 Safari/537.36" etag="HplFL9r1IvWX_P6bxVzx" version="20.5.1" type="github">
  <diagram id="mmKPReJ2i5C2evPvTfbs" name="第 1 页">
    <mxGraphModel dx="2062" dy="1122" grid="1" gridSize="10" guides="1" tooltips="1" connect="1" arrows="1" fold="1" page="1" pageScale="1" pageWidth="827" pageHeight="1169" math="0" shadow="0">
      <root>
        <mxCell id="0" />
        <mxCell id="1" parent="0" />
        <mxCell id="f2pbO_wGfVC7aQpVKiXE-1" value="&lt;b&gt;应用进程&lt;/b&gt;" style="text;html=1;strokeColor=none;fillColor=none;align=center;verticalAlign=middle;whiteSpace=wrap;rounded=0;" vertex="1" parent="1">
          <mxGeometry x="174" y="40" width="80" height="40" as="geometry" />
        </mxCell>
        <mxCell id="f2pbO_wGfVC7aQpVKiXE-2" value="建立SIGIO的信号处理程序" style="text;html=1;strokeColor=none;fillColor=none;align=center;verticalAlign=middle;whiteSpace=wrap;rounded=0;" vertex="1" parent="1">
          <mxGeometry x="174" y="80" width="80" height="40" as="geometry" />
        </mxCell>
        <mxCell id="f2pbO_wGfVC7aQpVKiXE-3" value="&lt;b&gt;内核&lt;/b&gt;" style="text;html=1;strokeColor=none;fillColor=none;align=center;verticalAlign=middle;whiteSpace=wrap;rounded=0;" vertex="1" parent="1">
          <mxGeometry x="414" y="40" width="80" height="40" as="geometry" />
        </mxCell>
        <mxCell id="f2pbO_wGfVC7aQpVKiXE-5" value="" style="endArrow=classic;html=1;rounded=0;" edge="1" parent="1">
          <mxGeometry width="50" height="50" relative="1" as="geometry">
            <mxPoint x="254" y="100" as="sourcePoint" />
            <mxPoint x="394" y="100" as="targetPoint" />
          </mxGeometry>
        </mxCell>
        <mxCell id="f2pbO_wGfVC7aQpVKiXE-6" value="sigaction系统调用" style="edgeLabel;html=1;align=center;verticalAlign=middle;resizable=0;points=[];" vertex="1" connectable="0" parent="f2pbO_wGfVC7aQpVKiXE-5">
          <mxGeometry x="0.2667" y="1" relative="1" as="geometry">
            <mxPoint x="-19" y="-9" as="offset" />
          </mxGeometry>
        </mxCell>
        <mxCell id="f2pbO_wGfVC7aQpVKiXE-7" value="数据报准备好" style="text;html=1;strokeColor=none;fillColor=none;align=center;verticalAlign=middle;whiteSpace=wrap;rounded=0;" vertex="1" parent="1">
          <mxGeometry x="414" y="200" width="80" height="20" as="geometry" />
        </mxCell>
        <mxCell id="f2pbO_wGfVC7aQpVKiXE-9" value="" style="shape=curlyBracket;whiteSpace=wrap;html=1;rounded=1;flipH=1;" vertex="1" parent="1">
          <mxGeometry x="504" y="90" width="20" height="130" as="geometry" />
        </mxCell>
        <mxCell id="f2pbO_wGfVC7aQpVKiXE-10" value="等待数据" style="text;html=1;strokeColor=none;fillColor=none;align=center;verticalAlign=middle;whiteSpace=wrap;rounded=0;" vertex="1" parent="1">
          <mxGeometry x="524" y="135" width="70" height="40" as="geometry" />
        </mxCell>
        <mxCell id="f2pbO_wGfVC7aQpVKiXE-11" value="复制数据报" style="text;html=1;strokeColor=none;fillColor=none;align=center;verticalAlign=middle;whiteSpace=wrap;rounded=0;" vertex="1" parent="1">
          <mxGeometry x="414" y="220" width="80" height="20" as="geometry" />
        </mxCell>
        <mxCell id="f2pbO_wGfVC7aQpVKiXE-12" value="" style="endArrow=classic;html=1;rounded=0;exitX=0.5;exitY=1;exitDx=0;exitDy=0;" edge="1" parent="1">
          <mxGeometry width="50" height="50" relative="1" as="geometry">
            <mxPoint x="453.5" y="250" as="sourcePoint" />
            <mxPoint x="454" y="320" as="targetPoint" />
          </mxGeometry>
        </mxCell>
        <mxCell id="f2pbO_wGfVC7aQpVKiXE-13" value="复制完成" style="text;html=1;strokeColor=none;fillColor=none;align=center;verticalAlign=middle;whiteSpace=wrap;rounded=0;" vertex="1" parent="1">
          <mxGeometry x="414" y="320" width="80" height="40" as="geometry" />
        </mxCell>
        <mxCell id="f2pbO_wGfVC7aQpVKiXE-14" value="" style="shape=curlyBracket;whiteSpace=wrap;html=1;rounded=1;flipH=1;" vertex="1" parent="1">
          <mxGeometry x="504" y="230" width="20" height="120" as="geometry" />
        </mxCell>
        <mxCell id="f2pbO_wGfVC7aQpVKiXE-15" value="将数据从内核复制到用户空间" style="text;html=1;strokeColor=none;fillColor=none;align=center;verticalAlign=middle;whiteSpace=wrap;rounded=0;" vertex="1" parent="1">
          <mxGeometry x="524" y="265" width="70" height="40" as="geometry" />
        </mxCell>
        <mxCell id="f2pbO_wGfVC7aQpVKiXE-16" value="" style="endArrow=classic;html=1;rounded=0;" edge="1" parent="1">
          <mxGeometry width="50" height="50" relative="1" as="geometry">
            <mxPoint x="394" y="340" as="sourcePoint" />
            <mxPoint x="254" y="340" as="targetPoint" />
          </mxGeometry>
        </mxCell>
        <mxCell id="f2pbO_wGfVC7aQpVKiXE-17" value="处理数据报" style="text;html=1;strokeColor=none;fillColor=none;align=center;verticalAlign=middle;whiteSpace=wrap;rounded=0;" vertex="1" parent="1">
          <mxGeometry x="174" y="320" width="80" height="40" as="geometry" />
        </mxCell>
        <mxCell id="f2pbO_wGfVC7aQpVKiXE-18" value="" style="shape=curlyBracket;whiteSpace=wrap;html=1;rounded=1;" vertex="1" parent="1">
          <mxGeometry x="154" y="90" width="20" height="120" as="geometry" />
        </mxCell>
        <mxCell id="f2pbO_wGfVC7aQpVKiXE-19" value="进程继续执行" style="text;html=1;strokeColor=none;fillColor=none;align=center;verticalAlign=middle;whiteSpace=wrap;rounded=0;" vertex="1" parent="1">
          <mxGeometry x="74" y="130" width="80" height="40" as="geometry" />
        </mxCell>
        <mxCell id="f2pbO_wGfVC7aQpVKiXE-20" value="返回成功指示" style="edgeLabel;html=1;align=center;verticalAlign=middle;resizable=0;points=[];" vertex="1" connectable="0" parent="1">
          <mxGeometry x="324" y="330" as="geometry" />
        </mxCell>
        <mxCell id="f2pbO_wGfVC7aQpVKiXE-21" value="read" style="text;html=1;strokeColor=none;fillColor=none;align=center;verticalAlign=middle;whiteSpace=wrap;rounded=0;" vertex="1" parent="1">
          <mxGeometry x="184" y="220" width="60" height="20" as="geometry" />
        </mxCell>
        <mxCell id="f2pbO_wGfVC7aQpVKiXE-22" value="" style="endArrow=classic;html=1;rounded=0;" edge="1" parent="1">
          <mxGeometry width="50" height="50" relative="1" as="geometry">
            <mxPoint x="254" y="230" as="sourcePoint" />
            <mxPoint x="394" y="230" as="targetPoint" />
          </mxGeometry>
        </mxCell>
        <mxCell id="f2pbO_wGfVC7aQpVKiXE-23" value="系统调用" style="edgeLabel;html=1;align=center;verticalAlign=middle;resizable=0;points=[];" vertex="1" connectable="0" parent="f2pbO_wGfVC7aQpVKiXE-22">
          <mxGeometry x="0.2667" y="1" relative="1" as="geometry">
            <mxPoint x="-19" y="-9" as="offset" />
          </mxGeometry>
        </mxCell>
        <mxCell id="f2pbO_wGfVC7aQpVKiXE-24" value="" style="endArrow=classic;html=1;rounded=0;" edge="1" parent="1">
          <mxGeometry width="50" height="50" relative="1" as="geometry">
            <mxPoint x="394" y="210" as="sourcePoint" />
            <mxPoint x="254" y="210" as="targetPoint" />
          </mxGeometry>
        </mxCell>
        <mxCell id="f2pbO_wGfVC7aQpVKiXE-25" value="递交SIGIO" style="edgeLabel;html=1;align=center;verticalAlign=middle;resizable=0;points=[];" vertex="1" connectable="0" parent="1">
          <mxGeometry x="324" y="200" as="geometry" />
        </mxCell>
        <mxCell id="f2pbO_wGfVC7aQpVKiXE-26" value="信号处理程序" style="text;html=1;strokeColor=none;fillColor=none;align=center;verticalAlign=middle;whiteSpace=wrap;rounded=0;" vertex="1" parent="1">
          <mxGeometry x="174" y="200" width="80" height="20" as="geometry" />
        </mxCell>
        <mxCell id="f2pbO_wGfVC7aQpVKiXE-27" value="" style="endArrow=classic;html=1;rounded=0;" edge="1" parent="1">
          <mxGeometry width="50" height="50" relative="1" as="geometry">
            <mxPoint x="394" y="110" as="sourcePoint" />
            <mxPoint x="254" y="110" as="targetPoint" />
          </mxGeometry>
        </mxCell>
        <mxCell id="f2pbO_wGfVC7aQpVKiXE-28" value="返回" style="edgeLabel;html=1;align=center;verticalAlign=middle;resizable=0;points=[];" vertex="1" connectable="0" parent="1">
          <mxGeometry x="324" y="120" as="geometry" />
        </mxCell>
        <mxCell id="f2pbO_wGfVC7aQpVKiXE-29" value="" style="shape=curlyBracket;whiteSpace=wrap;html=1;rounded=1;" vertex="1" parent="1">
          <mxGeometry x="154" y="230" width="20" height="120" as="geometry" />
        </mxCell>
        <mxCell id="f2pbO_wGfVC7aQpVKiXE-30" value="数据复制到应用缓冲区期间进程阻塞" style="text;html=1;strokeColor=none;fillColor=none;align=center;verticalAlign=middle;whiteSpace=wrap;rounded=0;" vertex="1" parent="1">
          <mxGeometry x="54" y="270" width="100" height="40" as="geometry" />
        </mxCell>
      </root>
    </mxGraphModel>
  </diagram>
</mxfile>
